<svg width="24" height="24" viewBox="0 0 24 24" fill="none" xmlns="http://www.w3.org/2000/svg">
<g clip-path="url(#clip0_46_2)">
<path d="M11.8645 5.57066e-05C10.6235 0.00868691 9.38397 0.0904956 8.15253 0.245056L7.88053 0.282056L7.54253 0.328056C7.46953 0.337056 7.36253 0.354056 7.30653 0.366056C7.23821 0.379994 7.16952 0.391999 7.10053 0.402056C7.01195 0.414854 6.92361 0.429189 6.83553 0.445056L6.57053 0.493056C6.37753 0.527056 5.80753 0.643056 5.51953 0.708056C4.45553 0.946056 3.27453 1.30206 2.78953 1.53206C2.44653 1.69506 2.01753 2.03806 1.85953 2.27506C1.71456 2.51308 1.6171 2.77695 1.57253 3.05206C1.54353 3.21006 1.54053 3.28206 1.53853 3.88406C1.53553 4.61206 1.54753 5.10706 1.58253 5.74906C1.74853 8.76806 2.27853 11.2891 3.26853 13.7491C3.93067 15.4617 4.81671 17.0791 5.90353 18.5591C6.90353 19.9221 8.02353 21.1311 9.29853 22.2291C10.0675 22.8891 11.0355 23.6341 11.3745 23.8241C11.7605 24.0411 12.1945 24.0581 12.5645 23.8711C12.8645 23.7181 13.9465 22.8971 14.6775 22.2671C15.8163 21.276 16.8604 20.1813 17.7965 18.9971C18.3065 18.3521 19.3375 16.7431 19.7735 15.9121C21.3955 12.8221 22.3225 9.02906 22.4245 5.10006C22.4545 4.45806 22.4695 3.87606 22.4545 3.57106C22.451 3.49491 22.4453 3.41888 22.4375 3.34306L22.4385 2.94606L22.2735 2.60306C22.1821 2.40198 22.0519 2.22087 21.8905 2.07006C21.6945 1.86506 21.5185 1.74906 21.1075 1.55106C20.1105 1.07106 18.7695 0.693056 17.1495 0.433056C16.6345 0.345078 16.117 0.273043 15.5975 0.217056L15.1935 0.169056C15.0572 0.153063 14.9205 0.140726 14.7835 0.132056C14.1219 0.0762825 13.4591 0.0362712 12.7955 0.0120557C12.4853 0.00164088 12.1749 -0.00202665 11.8645 0.00105571V5.57066e-05ZM12.0315 0.830056C15.3715 0.823056 18.1595 1.26606 20.4305 2.16206C21.2705 2.49206 21.4205 2.59506 21.5905 2.95406C21.7185 3.22406 21.7205 3.26406 21.6845 4.64506C21.4875 12.2351 18.8845 17.8641 13.5715 22.1861C12.9275 22.7111 12.2555 23.1891 12.0875 23.2421C12.0045 23.2681 11.8525 23.2091 11.6045 23.0551C11.1125 22.7501 9.88653 21.7521 9.06453 20.9871C7.71253 19.7321 6.35753 18.0501 5.43453 16.4811C3.46453 13.1371 2.44153 9.23706 2.32053 4.61506C2.28553 3.26506 2.28853 3.22306 2.41653 2.95306C2.58653 2.59606 2.73853 2.49106 3.54653 2.17606C5.77653 1.30306 8.13153 0.900056 11.3565 0.837056C11.5845 0.833056 11.8095 0.830056 12.0315 0.830056ZM11.0905 1.53806L11.0455 1.54106C10.8455 1.56506 10.5975 1.74706 10.4785 1.96306C10.2055 2.45806 10.2585 3.55506 10.5745 3.93706C10.6975 4.08706 10.7625 4.11306 10.9955 4.11306C11.1505 4.11306 11.3295 4.07306 11.4025 4.02006C11.4755 3.96806 11.5925 3.81306 11.6625 3.67506C11.8465 3.31506 11.8505 2.41006 11.6695 2.00706C11.5535 1.75006 11.3365 1.56406 11.1315 1.54106L11.1095 1.53906H11.0895L11.0905 1.53806ZM12.1845 1.59806L12.1675 2.83106C12.1603 3.22568 12.1569 3.62037 12.1575 4.01506C12.1623 4.03562 12.169 4.05571 12.1775 4.07506C12.2025 4.08006 12.2665 4.08406 12.3505 4.08406H12.5325V3.55506C12.5325 3.04906 12.5375 3.02806 12.6585 3.04606C12.7585 3.06106 12.8205 3.17206 12.9655 3.58906L13.1475 4.11306H13.5875L13.3935 3.54906L13.2005 2.98406L13.3585 2.83306C13.5515 2.64706 13.6115 2.37706 13.5285 2.06606C13.4375 1.71906 13.2065 1.59906 12.6375 1.59806H12.1845ZM14.5605 1.65806C14.0555 1.65806 13.8275 2.04106 13.8305 2.88606C13.8305 3.44406 13.9145 3.79606 14.0945 3.99906C14.3025 4.23206 14.7545 4.27306 15.0395 4.08306C15.1935 3.98106 15.2915 3.66706 15.2945 3.27506C15.2945 3.17106 15.2905 3.08906 15.2765 3.03106C15.2435 2.93706 15.1465 2.92506 14.8695 2.89806L14.6345 2.87506C14.5935 2.89906 14.5905 2.95506 14.5905 3.07906V3.11906L14.5915 3.13706C14.5975 3.25506 14.6265 3.27506 14.7375 3.27506C14.8555 3.27506 14.8835 3.30506 14.8835 3.42906C14.8835 3.78406 14.6035 3.94106 14.3935 3.70506C14.1055 3.38106 14.1705 2.14506 14.4805 2.04506C14.6105 2.00306 14.8255 2.16006 14.8255 2.29606C14.8255 2.34806 14.8975 2.37606 15.0305 2.37606C15.2645 2.37606 15.2905 2.29706 15.1485 2.01806C15.0988 1.90532 15.0159 1.81043 14.9108 1.7461C14.8057 1.68177 14.6835 1.65105 14.5605 1.65806ZM9.36153 1.69606C9.25234 1.69302 9.14306 1.6977 9.03453 1.71006L8.68153 1.74806L8.64953 4.24606L9.07753 4.20406C9.31253 4.18006 9.56753 4.13006 9.64653 4.09306C9.88753 3.97506 10.0245 3.72706 10.0295 3.39806C10.0325 3.16806 10.0045 3.06906 9.90653 2.96906C9.78053 2.84106 9.78053 2.83906 9.89153 2.65306C9.95758 2.54967 9.99465 2.43045 9.99887 2.30784C10.0031 2.18523 9.97431 2.06374 9.91553 1.95606C9.83253 1.79306 9.65253 1.70706 9.36153 1.69606ZM15.6485 1.77006V4.28006L15.8535 4.30406L16.0595 4.32906V3.77206C16.0595 3.15506 16.0405 3.17806 16.4865 3.25306L16.7065 3.29106V3.84706C16.7065 4.32706 16.7205 4.40806 16.8095 4.43206C17.0695 4.50106 17.0625 4.53206 17.0455 3.23006L17.0295 1.98706L16.8685 1.96806L16.7065 1.94906V2.91706L16.4565 2.88106C16.0465 2.82306 16.0595 2.84106 16.0595 2.31906C16.0595 1.97406 16.0395 1.83706 15.9865 1.83706C15.9168 1.83168 15.8478 1.81928 15.7805 1.80006L15.6845 1.77306L15.6485 1.77006ZM8.24053 1.80206L8.04053 1.82606C7.84353 1.84906 7.83653 1.86006 7.68353 2.36706C7.59853 2.65206 7.49353 2.99306 7.45153 3.12506L7.37453 3.36506L7.18353 2.73606C7.07853 2.39006 6.97153 2.08406 6.94553 2.05606C6.92053 2.02806 6.81753 2.02306 6.71753 2.04606L6.53553 2.08606V3.31006C6.53553 4.47506 6.54053 4.53306 6.64853 4.53306C6.71301 4.53268 6.77707 4.52257 6.83853 4.50306C6.89653 4.48006 6.91253 4.36306 6.89853 4.06606C6.88796 3.85185 6.88796 3.63726 6.89853 3.42306C6.91653 3.20306 6.93453 3.23506 7.14653 3.86906L7.37553 4.55406L7.58753 3.78606L7.79953 3.01906L7.80853 3.37906C7.82367 3.42434 7.82472 3.47316 7.81153 3.51906L7.81653 3.69206C7.83053 4.27006 7.84653 4.35906 7.92353 4.32906C7.98926 4.30658 8.05808 4.29444 8.12753 4.29306C8.23553 4.29306 8.24053 4.23506 8.24053 3.04706V1.80206ZM12.5325 1.94206L12.7805 1.97506C13.1325 2.02406 13.2805 2.27106 13.1055 2.51606C13.0255 2.62606 12.6495 2.71606 12.5755 2.64106C12.5525 2.61706 12.5325 2.44906 12.5325 2.26906V1.94206ZM11.0705 1.96706C11.1535 1.97106 11.2335 2.03706 11.2975 2.16706C11.4295 2.43506 11.4195 3.37706 11.2815 3.59206C11.1485 3.79906 10.9765 3.79906 10.8435 3.59206C10.7675 3.47406 10.7335 3.28306 10.7215 2.88906C10.7065 2.42506 10.7215 2.31806 10.8265 2.14906C10.9025 2.02406 10.9875 1.96406 11.0705 1.96706ZM9.06353 2.07706H9.25753C9.49253 2.07706 9.59253 2.16706 9.59253 2.38106C9.59253 2.57106 9.51253 2.64606 9.25453 2.69606L9.06453 2.73306V2.40506L9.06353 2.07706ZM17.5605 2.08206C17.5485 2.08718 17.5379 2.09506 17.5295 2.10506V4.58506L17.6915 4.61006C17.7805 4.62306 17.8725 4.63906 17.8975 4.64306C17.9215 4.64806 17.9415 4.10206 17.9415 3.42806C17.9415 2.75506 17.9215 2.19306 17.8975 2.17806C17.8309 2.15077 17.7619 2.12935 17.6915 2.11406L17.5605 2.08206ZM5.58153 2.30006C5.53514 2.30381 5.48925 2.31218 5.44453 2.32506C5.26453 2.37506 5.26253 2.38306 5.04453 3.35006C4.92453 3.88606 4.78853 4.48006 4.74453 4.67206L4.66353 5.02006L4.84953 4.98006C4.92586 4.96549 5.0008 4.94442 5.07353 4.91706C5.09353 4.90506 5.12853 4.74706 5.15153 4.56506C5.19653 4.19506 5.19253 4.20106 5.48553 4.14506L5.69853 4.10406L5.76853 4.40606C5.83853 4.70206 5.84453 4.70706 6.02653 4.67206C6.09849 4.66121 6.16896 4.64209 6.23653 4.61506C6.26653 4.59006 5.70853 2.36206 5.65953 2.31106C5.64953 2.30106 5.62053 2.29706 5.58153 2.30006ZM18.3525 2.31806V3.54406C18.3525 4.48606 18.3695 4.77206 18.4265 4.77306C18.4665 4.77306 18.5585 4.79006 18.6305 4.81006C18.7585 4.84506 18.7605 4.83606 18.7775 4.11606L18.7935 3.38606L19.1155 4.20306C19.2915 4.65306 19.4775 5.04506 19.5265 5.07406C19.7605 5.21406 19.7665 5.18006 19.7505 3.89406L19.7345 2.65406L19.5725 2.61106L19.4105 2.56706V3.23506C19.4085 4.00206 19.4025 3.99906 19.0505 3.09506C18.7925 2.43306 18.7095 2.31706 18.4885 2.31706L18.3525 2.31806ZM3.75253 2.85706C3.74053 2.85706 3.64753 2.88706 3.54553 2.92206L3.36053 2.98806V3.29806L3.37753 4.28606C3.38553 4.75606 3.39753 5.13106 3.42353 5.46806C3.43453 5.47206 3.44753 5.47006 3.46353 5.46306C3.52053 5.44006 3.78453 5.34106 4.05153 5.24106C4.50753 5.07206 4.53653 5.05106 4.53653 4.88706C4.53653 4.79206 4.52753 4.71306 4.51653 4.71306C4.50553 4.71306 4.34253 4.76706 4.15453 4.83306C4.03517 4.87691 3.91444 4.91693 3.79253 4.95306C3.78153 4.95306 3.77253 4.48106 3.77253 3.90506C3.77253 3.32806 3.76253 2.85706 3.75253 2.85706ZM20.2545 2.85706C20.2435 2.85706 20.2345 3.41906 20.2345 4.10606V5.35506L20.4245 5.41706C20.5305 5.45206 20.6225 5.48206 20.6305 5.48606C20.6385 5.48906 20.6455 4.92906 20.6455 4.24006V2.98706L20.4605 2.92106C20.3931 2.89568 20.3243 2.87398 20.2545 2.85606V2.85706ZM9.30653 3.06306C9.56953 3.07306 9.73353 3.36006 9.58553 3.63106C9.52253 3.74606 9.44553 3.79006 9.28253 3.80406L9.06353 3.82206V3.46606C9.06353 3.15506 9.07853 3.10606 9.18753 3.07706C9.22628 3.06653 9.26639 3.06181 9.30653 3.06306ZM5.45453 3.06606L5.53253 3.38806C5.57553 3.56806 5.58953 3.65306 5.57353 3.70406C5.57308 3.71131 5.57106 3.71837 5.56761 3.72476C5.56415 3.73115 5.55935 3.73671 5.55353 3.74106C5.54605 3.74873 5.53765 3.75544 5.52853 3.76106C5.38753 3.85206 5.29053 3.82406 5.32853 3.70106C5.34853 3.63906 5.38453 3.47106 5.40853 3.32706L5.45453 3.06606ZM12.3335 4.72606C11.7785 4.73906 11.2995 4.89606 11.0275 5.17206C10.7845 5.41906 10.7575 5.68206 10.9595 5.81706C11.2145 5.98606 11.6325 6.03706 13.1275 6.08506C14.4955 6.12906 14.6595 6.14506 14.8975 6.26206C15.1895 6.40706 15.3165 6.59506 15.3075 6.87206C15.3015 7.10206 15.1505 7.34906 15.0145 7.34906C14.7855 7.34906 14.0255 7.15506 13.4885 6.95906C13.2728 6.87654 13.0521 6.80807 12.8275 6.75406L12.7895 6.75106C12.6455 6.75506 12.4715 6.87206 11.9715 7.30206C11.7515 7.49106 11.3615 7.75606 11.1045 7.89206C10.2705 8.33506 10.0135 8.68606 9.89753 9.54106C9.83453 10.0041 9.75753 10.1891 9.39853 10.7281C9.10053 11.1761 8.89053 11.7781 8.88853 12.1851C8.88853 12.3821 8.81853 12.6961 8.70453 13.0241C8.55453 13.4571 8.52053 13.6511 8.50953 14.1461C8.49753 14.6601 8.47453 14.7861 8.34653 15.0251C8.25353 15.1971 8.18053 15.4551 8.15453 15.6991C8.11753 16.0591 8.08753 16.1251 7.82453 16.4391C7.66553 16.6271 7.53553 16.8141 7.53553 16.8541C7.53553 16.8761 7.51053 16.9241 7.47253 16.9821C7.46453 17.0201 7.44653 17.0471 7.42353 17.0501C7.40301 17.0789 7.38098 17.1066 7.35753 17.1331C7.13353 17.3931 7.02353 17.6921 7.11753 17.7871C7.16653 17.8371 7.20653 17.8211 7.27453 17.7231C7.40353 17.5351 7.47753 17.5581 7.41853 17.7671C7.38453 17.8871 7.39053 17.9531 7.43753 17.9741C7.52553 18.0131 7.85953 17.9601 8.03453 17.8791C8.12653 17.8361 8.19453 17.7261 8.24453 17.5391C8.28453 17.3861 8.35853 17.2121 8.40853 17.1531C8.46353 17.0871 8.50953 16.8881 8.52453 16.6471C8.54653 16.2951 8.57553 16.2161 8.77453 15.9591C8.90453 15.7931 9.04153 15.5221 9.09553 15.3271C9.14853 15.1391 9.23253 14.9041 9.28353 14.8051C9.66053 14.0651 9.90353 13.6371 9.94653 13.6371C10.0765 13.6371 10.1805 13.9211 10.1805 14.2771C10.1805 14.5571 10.2045 14.6631 10.2745 14.7031C10.3595 14.7511 10.3605 14.7761 10.2835 14.9311C10.2299 15.0434 10.1871 15.1606 10.1555 15.2811C10.0985 15.5211 9.91053 15.7781 9.71353 15.8811C9.62353 15.9291 9.42753 16.0891 9.27753 16.2381C9.06153 16.4521 9.00453 16.5481 9.00553 16.7051C9.00653 16.9691 9.09153 17.1071 9.19053 17.0051C9.30853 16.8851 9.36253 16.9201 9.32053 17.0901C9.28253 17.2441 9.28853 17.2481 9.47853 17.2101C9.72153 17.1601 9.94153 17.0171 9.98253 16.8831C9.99953 16.8271 10.0365 16.7411 10.0645 16.6921C10.0935 16.6421 10.2015 16.4181 10.3065 16.1921C10.4365 15.9121 10.5795 15.7141 10.7595 15.5641C10.9035 15.4441 11.0595 15.2511 11.1075 15.1361C11.2465 14.7981 11.6505 14.5081 11.6505 14.7481C11.6505 14.8881 11.4225 15.3121 11.2565 15.4811C11.0475 15.6941 10.8865 15.9801 10.8865 16.1381C10.8865 16.2771 10.9685 16.3181 11.0335 16.2131C11.0975 16.1071 11.1705 16.1491 11.1385 16.2731C11.1356 16.2846 11.1332 16.2963 11.1315 16.3081C11.1415 16.3381 11.1565 16.3631 11.1765 16.3831C11.2015 16.3901 11.2365 16.3931 11.2885 16.3931C11.5905 16.3931 11.8755 16.2191 11.9185 16.0081C11.952 15.8768 12.0032 15.7506 12.0705 15.6331C12.1445 15.5091 12.1705 15.3911 12.1465 15.2921C12.1065 15.1311 12.2145 14.7151 12.2965 14.7151C12.3565 14.7151 12.5705 15.1621 12.6245 15.4051C12.6542 15.5176 12.7073 15.6226 12.7805 15.7131C12.8885 15.8341 12.9355 15.8411 13.4635 15.8111C14.0105 15.7801 14.0365 15.7711 14.1785 15.5941C14.2845 15.4601 14.3345 15.3091 14.3585 15.0471C14.4005 14.5851 14.6005 14.2711 15.0585 13.9431L15.4005 13.6991L15.4845 13.8331C15.5315 13.9061 15.6315 14.1221 15.7075 14.3121C15.8355 14.6281 15.8405 14.6801 15.7725 14.9521C15.7315 15.1161 15.7155 15.3061 15.7365 15.3751C15.7585 15.4451 15.7295 15.6311 15.6715 15.7951L15.6265 15.9231L15.6175 15.9791C15.6065 16.0289 15.6018 16.08 15.6035 16.1311L15.7065 16.2411C15.8635 16.4131 15.9725 16.4341 16.0225 16.3031C16.0665 16.1831 16.1775 16.1871 16.1775 16.3081C16.1775 16.4351 16.2925 16.3881 16.4255 16.2081C16.5275 16.0681 16.5285 16.0431 16.4415 15.7921C16.3895 15.6441 16.3605 15.4771 16.3745 15.4211C16.3885 15.3641 16.3745 15.2021 16.3425 15.0611C16.2693 14.6993 16.2731 14.3262 16.3535 13.9661C16.4105 13.6881 16.4035 13.6271 16.2705 13.3361C16.1895 13.1591 16.1345 13.0021 16.1475 12.9891C16.1615 12.9751 16.2725 13.0041 16.3955 13.0531C16.9655 13.2811 17.4105 13.2291 17.6815 12.9031L17.8195 12.7361C17.8217 12.7269 17.8231 12.7175 17.8235 12.7081L17.4945 12.6781C17.4194 12.671 17.3444 12.6626 17.2695 12.6531C17.0705 12.6201 16.9835 12.5481 16.6655 12.2641C16.3715 12.0021 16.3615 11.9821 16.3925 11.7481C16.4115 11.6091 16.3825 11.3061 16.3255 11.0471C16.2335 10.6251 16.2335 10.5641 16.3195 10.2631C16.3705 10.0831 16.4125 9.85606 16.4125 9.76006C16.4125 9.47006 16.2545 9.02406 16.0675 8.78706C15.9625 8.6477 15.882 8.49146 15.8295 8.32506C15.7815 8.1636 15.7115 8.0095 15.6215 7.86706C15.4855 7.66306 15.4815 7.63806 15.5625 7.44206C15.6193 7.26835 15.6483 7.08679 15.6485 6.90406C15.6485 6.61706 15.6235 6.54506 15.4575 6.35306C15.0975 5.93506 14.9275 5.89606 13.2075 5.84506C11.2225 5.78506 10.9105 5.70906 11.2185 5.36206C11.3445 5.22006 11.5505 5.22406 11.9785 5.37606C12.4475 5.54206 13.0205 5.58306 13.3555 5.47506C13.6435 5.38206 13.6485 5.38706 13.1495 5.28106C13.0695 5.26406 13.0025 5.22106 13.0025 5.18406C13.0025 5.17106 13.0105 5.16206 13.0235 5.15506C13.0325 5.13706 13.0745 5.13306 13.1535 5.14206C13.1895 5.14406 13.2315 5.14806 13.2815 5.15506C14.0505 5.25906 14.1785 5.26706 14.1785 5.20806C14.1785 5.11106 13.6625 4.91106 13.1235 4.80006C12.8638 4.7458 12.5988 4.72098 12.3335 4.72606ZM12.5465 5.21706C12.626 5.22421 12.7041 5.24238 12.7785 5.27106L13.0325 5.36306L12.8505 5.36606L12.8265 5.36706L12.7955 5.36506C12.7056 5.36737 12.6163 5.35032 12.5335 5.31506C12.4305 5.24806 12.4535 5.21206 12.5465 5.21706Z" fill="black"/>
</g>
<defs>
<clipPath id="clip0_46_2">
<rect width="24" height="24" fill="white"/>
</clipPath>
</defs>
</svg>
